<svg xmlns="http://www.w3.org/2000/svg" width="338.746" height="327.065" viewBox="0 0 338.746 327.065">
  <g id="Group_8" data-name="Group 8" transform="translate(-1187 -3008.473)">
    <g id="Group_7" data-name="Group 7" transform="translate(1187 3008.473)">
      <rect id="Rectangle_117" data-name="Rectangle 117" width="11.681" height="29.203" transform="translate(151.852 297.862)" fill="#505050"/>
      <path id="Path_28" data-name="Path 28" d="M1408.925,484.863l-21.97-8.951c-4.659-24.9-13.883-79.4-14.626-124.239a58.4,58.4,0,1,0-116.809,0c0,45.037-9.569,99.355-14.459,124.177l-22.14,9.014a34.911,34.911,0,0,0-21.806,32.446v50.46h11.68v-50.46a23.274,23.274,0,0,1,14.534-21.63l14.884-6.059a11.682,11.682,0,0,0,4.857,11.855c19.479,13.346,53.8,19.567,70.855,19.569s51.37-6.22,70.86-19.574a11.683,11.683,0,0,0,5.066-9.627,11.842,11.842,0,0,0-.221-2.23l14.884,6.064a23.277,23.277,0,0,1,14.539,21.632v50.46h11.68v-50.46A34.912,34.912,0,0,0,1408.925,484.863Zm-46.906,15.058-14.515-49.11-11.2,3.309,14.612,49.436c-13.568,3.825-27.74,5.81-36.987,5.81-9.127,0-23.046-1.932-36.444-5.659l12.866-68.581-11.481-2.154-12.591,67.111a78.112,78.112,0,0,1-16.592-8.256c.859-3.876,17.518-79.93,17.518-140.154a46.724,46.724,0,1,1,93.447.1c1.015,61.132,17.368,139.346,17.526,140.07A77.5,77.5,0,0,1,1362.019,499.921Z" transform="translate(-1091.988 -240.705)" fill="#505050"/>
      <rect id="Rectangle_118" data-name="Rectangle 118" width="11.681" height="29.203" transform="translate(280.342 297.862)" fill="#505050"/>
      <rect id="Rectangle_119" data-name="Rectangle 119" width="11.681" height="23.361" transform="translate(292.023 5.841)" fill="#505050"/>
      <rect id="Rectangle_120" data-name="Rectangle 120" width="11.681" height="23.361" transform="translate(292.023 52.564)" fill="#505050"/>
      <rect id="Rectangle_121" data-name="Rectangle 121" width="23.361" height="11.681" transform="translate(309.544 35.043)" fill="#505050"/>
      <rect id="Rectangle_122" data-name="Rectangle 122" width="23.363" height="11.681" transform="translate(262.82 35.043)" fill="#505050"/>
      <path id="Path_29" data-name="Path 29" d="M1193.02,283.654c-7.369,0-13.6,3.659-17.52,6.72-3.922-3.061-10.152-6.72-17.523-6.72a23.361,23.361,0,0,0-16.832,39.562l26.016,27.022a11.9,11.9,0,0,0,8.339,3.5,11.74,11.74,0,0,0,8.415-3.58l25.938-26.943a23.361,23.361,0,0,0-16.832-39.562Zm8.416,31.461-25.871,26.949c-.023-.006-.064-.027-.075-.027s0,0,.01.021l-25.939-26.943a11.68,11.68,0,0,1,8.416-19.781c5.712,0,11.456,4.935,13.171,6.816l4.331,4.8,4.355-4.782c1.731-1.9,7.474-6.834,13.186-6.834a11.68,11.68,0,0,1,8.416,19.781Z" transform="translate(-1105.413 -242.771)" fill="#505050"/>
      <path id="Path_30" data-name="Path 30" d="M1178.8,378.326a81.821,81.821,0,0,1-52.118-18.809l-7.458,8.992a93.53,93.53,0,0,0,59.576,21.5,94.7,94.7,0,0,0,11.755-.733l-1.454-11.591A82.839,82.839,0,0,1,1178.8,378.326Z" transform="translate(-1108.719 -226.474)" fill="#505050"/>
      <path id="Path_31" data-name="Path 31" d="M1239.067,401.852a11.684,11.684,0,0,0,11.083-15.377l-9.852-29.554a69.969,69.969,0,1,0-35.724,29.064l29.271,14.635A11.72,11.72,0,0,0,1239.067,401.852ZM1202.678,374.2a58.424,58.424,0,1,1,26.358-21.375l-1.621,2.388,11.656,34.96L1205.127,373.2Z" transform="translate(-1110.577 -250)" fill="#505050"/>
    </g>
  </g>
</svg>
