<svg xmlns="http://www.w3.org/2000/svg" width="315" height="320.702" viewBox="0 0 315 320.702">
  <g id="Group_9" data-name="Group 9" transform="translate(-682.671 -682.692)">
    <path id="Path_32" data-name="Path 32" d="M968.394,861.326a17.143,17.143,0,0,0-11.1-11.676l-17.177-5.726a17.214,17.214,0,0,0-9.862-.3c-8.249-2.076-48.977-13.4-65.244-38.09-7.857-11.927-11.382-27.189-15.111-43.346-5.463-23.656-11.112-48.118-30.741-67.06a22.833,22.833,0,0,0-26.38-4.3,39.871,39.871,0,0,0-24.179-8.139c-22.221,0-42.907,10.54-58.247,29.677a100.88,100.88,0,0,0-21.928,61.953,79.86,79.86,0,0,0,34.362,65.8v22.111l-40.114,17.827,4.65,10.467,25.452-11.311a57.207,57.207,0,0,0,88.743,0l25.451,11.31a22.82,22.82,0,0,1,10.139,8.819l28.867,46.324,42.351-50.611-8.785-7.35-32.206,38.488-20.507-32.91a34.232,34.232,0,0,0-15.208-13.228l-40.113-17.827V843.043a23.065,23.065,0,0,0,21.941-16.307,166.021,166.021,0,0,0,6.693-46.687c0-22.8-4.286-44.576-11.49-58.708a39.842,39.842,0,0,0-7.112-21.371,11.725,11.725,0,0,1,1.422-.1,11.443,11.443,0,0,1,8.171,3.426c17.259,16.654,22.519,39.434,27.606,61.464,3.969,17.189,7.719,33.424,16.709,47.071.754,1.144,1.553,2.258,2.384,3.351a51.8,51.8,0,0,1-31.795,16.073l1.294,11.38a63.349,63.349,0,0,0,38.209-18.93,90.541,90.541,0,0,0,8.831,7.305,74.015,74.015,0,0,1-54.2,23.484h-.032V865.95h.057c33.629,0,66.774,3.2,91.857,8.812a17.069,17.069,0,0,0,9.22,12.287l11.452,5.727c.189.1.392.163.585.251l-13.82,14.357a11.469,11.469,0,0,0-1.387,1.752l-42.475,66.033a11.457,11.457,0,0,1-17.621,2.111l-32.14-30.974V928.946H814.414v74.449h11.453v-41.18l24.193,23.315a22.911,22.911,0,0,0,35.216-4.186l42.461-66.009,23.108-24.006c6.353,7.017,12.467,16.322,12.467,26.164,0,10.179-4.339,22.216-12.9,35.778l9.687,6.112c9.731-15.42,14.665-29.514,14.665-41.89,0-13.581-7.89-25.612-15.85-34.3l5.092-5.091a17.279,17.279,0,0,0,2.47-3.15c10.411,10.35,19.74,26.235,19.74,42.544,0,14.38-4.708,28.7-7.515,35.958l10.684,4.131c3.095-8,8.285-23.849,8.285-40.089C997.671,894.552,983.246,873.117,968.394,861.326ZM768.6,694.145A28.678,28.678,0,0,1,797,719.1a320.481,320.481,0,0,0-36.236,18.968c-.257.157-.515.311-.773.469-.039.025-.077.048-.118.071h0c-22.973,14.132-47.669,33.9-56.562,57.244a68.954,68.954,0,0,1-3.434-21.534C699.876,736.4,728.1,694.145,768.6,694.145Zm33.875,129.3a11.526,11.526,0,0,1-10.968,8.139h0c-13.588,0-30.271-4.815-32.128-5.364l-3.246,10.984a163.364,163.364,0,0,0,23.926,5.045v19.975a11.464,11.464,0,0,0,6.8,10.467l3.715,1.651a45.751,45.751,0,0,1-66.849,0l3.715-1.651a11.463,11.463,0,0,0,6.8-10.467V808.682H722.785V825.56a68.562,68.562,0,0,1-11.4-13.116c1.1-27.727,35.307-52.63,57.6-65.959.17-.1.342-.206.512-.306.355-.212.7-.413,1.049-.619a315.278,315.278,0,0,1,29.625-15.323c5.308,12.534,8.514,30.993,8.514,49.813A154.371,154.371,0,0,1,802.474,823.45Zm111.39,39.977a390.316,390.316,0,0,0-53.507-7.433,85.761,85.761,0,0,0,23.757-18.623A169.833,169.833,0,0,0,919.34,852.48c-.012.023-.025.044-.037.068ZM926.4,876.807a5.738,5.738,0,0,1-2.575-7.683l5.727-11.453a5.746,5.746,0,0,1,6.942-2.883l17.18,5.727h0A5.729,5.729,0,0,1,955.907,870l-11.454,11.453a5.815,5.815,0,0,1-6.6,1.079Z" fill="#505050"/>
    <rect id="Rectangle_123" data-name="Rectangle 123" width="42.266" height="11.453" transform="translate(950.045 790.943) rotate(-45)" fill="#505050"/>
    <rect id="Rectangle_124" data-name="Rectangle 124" width="11.453" height="40.088" transform="translate(894.589 728.507)" fill="#505050"/>
  </g>
</svg>
