<svg xmlns="http://www.w3.org/2000/svg" width="338.328" height="307" viewBox="0 0 338.328 307">
  <g id="Group_10" data-name="Group 10" transform="translate(-1120.192 -1581.731)">
    <path id="Path_33" data-name="Path 33" d="M1395.866,1728.048v-27.276a25.1,25.1,0,0,0-18.795-24.268v-19.589a12.539,12.539,0,0,0-11.589-12.482l-7.5-34.074a12.6,12.6,0,0,0-12.237-9.831h-6.266a12.6,12.6,0,0,0-12.238,9.831l-7.5,34.074a12.538,12.538,0,0,0-11.589,12.482v19.6a25.049,25.049,0,0,0-15.787,12.341l11.021,5.963a12.533,12.533,0,0,1,11.03-6.58h37.593v-12.53h-31.327v-18.8h43.858v31.326h6.266a12.545,12.545,0,0,1,12.53,12.531V1726.1c-2.071-.158-4.155-.264-6.264-.264a81.417,81.417,0,0,0-43.328,150.367H1279.7a24.868,24.868,0,0,0,3.391-12.53V1669.446a43.908,43.908,0,0,0-43.858-43.859v-25.06a18.817,18.817,0,0,0-18.8-18.8h-37.59a18.816,18.816,0,0,0-18.8,18.8v25.06h0a43.908,43.908,0,0,0-43.857,43.859v194.225a25.09,25.09,0,0,0,25.062,25.06h231.818a81.44,81.44,0,0,0,18.795-160.683Zm-50.121-115,6.9,31.334h-20.059l6.9-31.327Zm-169.164,108.021h93.979v111.273h-93.979ZM1145.254,1876.2a12.545,12.545,0,0,1-12.53-12.53V1669.446a31.362,31.362,0,0,1,31.326-31.327h50.123v-12.531h-37.592v-25.06a6.272,6.272,0,0,1,6.266-6.266h37.59a6.271,6.271,0,0,1,6.266,6.266v37.592h12.53a31.363,31.363,0,0,1,31.327,31.327v39.1H1164.25v11.026h-.2v112.777a12.545,12.545,0,0,0,12.53,12.53h93.979v18.8a12.545,12.545,0,0,1-12.53,12.53Zm231.818,0a68.918,68.918,0,1,1,68.918-68.918A69,69,0,0,1,1377.071,1876.2Z" fill="#505050"/>
    <rect id="Rectangle_125" data-name="Rectangle 125" width="50.123" height="12.53" transform="translate(1201.642 1738.364)" fill="#505050"/>
    <rect id="Rectangle_126" data-name="Rectangle 126" width="12.532" height="12.53" transform="translate(1245.498 1763.425)" fill="#505050"/>
    <rect id="Rectangle_127" data-name="Rectangle 127" width="43.857" height="12.53" transform="translate(1189.111 1763.425)" fill="#505050"/>
    <path id="Path_34" data-name="Path 34" d="M1363.143,1733.459a6.622,6.622,0,0,0-9.369,0l-24.464,24.463-24.463-24.463a6.625,6.625,0,1,0-9.369,9.369l24.464,24.464-24.464,24.464a6.625,6.625,0,0,0,9.369,9.369l24.463-24.463,24.464,24.463a6.625,6.625,0,0,0,9.369-9.369l-24.463-24.464,24.463-24.464A6.625,6.625,0,0,0,1363.143,1733.459Z" transform="translate(48.45 41.307)" fill="#505050"/>
  </g>
</svg>
